# xmcd CD database file
#
# Track frame offsets:
#	150
#	12002
#	27601
#	39071
#	54198
#	67325
#	82472
#	98824
#	117721
#	130338
#
# Disc length: 1903 seconds
#
# Revision: 2
# Processed by: cddbd v1.5.2PL0 Copyright (c) Steve Scherf et al.
# Submitted via: CDex 1.70beta2
#
DISCID=8a076d0a
DTITLE=Tina Turner - Experience
DYEAR=1995
DGENRE=Pop/Rock
TTITLE0=Stand by your man
TTITLE1=If this was your last time
TTITLE2=Soul deep
TTITLE3=Good hearted woman
TTITLE4=Freedom to stay
TTITLE5=We had it all
TTITLE6=Lay it down
TTITLE7=Lovin' him was asier
TTITLE8=If it's allright with you
TTITLE9=You ain't woman enough to take my man
EXTD=YEAR: 1995
EXTT0=
EXTT1=
EXTT2=
EXTT3=
EXTT4=
EXTT5=
EXTT6=
EXTT7=
EXTT8=
EXTT9=
PLAYORDER=
